<svg xmlns="http://www.w3.org/2000/svg" viewBox="0 0 1920 1200"><defs><style>.cls-1,.cls-3{fill:#fff;}.cls-1{opacity:0.3;}.cls-2{fill:none;stroke:#fff;stroke-miterlimit:10;stroke-width:4px;}.cls-4{fill:#6d6e71;}.cls-5{fill:#f1f2f2;}.cls-6{fill:#ccc;}.cls-7{fill:#e6e6e5;}.cls-8{fill:#4e4e4e;}</style></defs><title>dolphin</title><g id="chat"><path class="cls-1" d="M1410.79,287.15V633.27c0,14.91-16.11,27.12-35.79,27.12H732.67c0,29.49-67.25,103.21-135.25,103.21,32.78,0,68.84-76.53,68.84-103.21H545c-19.69,0-35.79-12.2-35.79-27.12V287.15c0-14.91,16.11-27.12,35.79-27.12h830C1394.68,260,1410.79,272.24,1410.79,287.15Z"/><path class="cls-2" d="M1410.79,285.84V632c0,14.91-16.11,27.12-35.79,27.12H732.67c0,29.49-67.25,104.53-135.25,104.53,32.78,0,68.84-77.84,68.84-104.53H545c-19.69,0-35.79-12.2-35.79-27.12V285.84c0-14.91,16.11-27.12,35.79-27.12h830C1394.68,258.72,1410.79,270.92,1410.79,285.84Z"/><path class="cls-3" d="M594.78,417a28.4,28.4,0,0,1-6.67,9,29.73,29.73,0,0,1-9.89,5.87A35.57,35.57,0,0,1,566,434a19.25,19.25,0,0,1-9.2-2.47,29.12,29.12,0,0,1-8.85-7.88l8.51-16.67a12.65,12.65,0,0,0,2.42,3,18.12,18.12,0,0,0,3.62,2.7,27.12,27.12,0,0,0,4,1.9,10.51,10.51,0,0,0,3.62.75,9.74,9.74,0,0,0,2.88-.46,9.3,9.3,0,0,0,2.76-1.38,7.54,7.54,0,0,0,2-2.13,5.24,5.24,0,0,0,.75-2.82,8.32,8.32,0,0,0-1.78-5.12,25.88,25.88,0,0,0-4.43-4.49q-2.65-2.13-5.75-4.31a52.86,52.86,0,0,1-5.69-4.6,25.92,25.92,0,0,1-4.43-5.41,12.46,12.46,0,0,1-1.84-6.67,19.29,19.29,0,0,1,3.56-11.16,35.17,35.17,0,0,1,8.91-8.91A47.2,47.2,0,0,1,578.74,352a36.71,36.71,0,0,1,12-2.18,22.4,22.4,0,0,1,5.87.75,12.53,12.53,0,0,1,4.77,2.42,12.19,12.19,0,0,1,3.22,4.2,14.64,14.64,0,0,1,1.21,6.32,18.39,18.39,0,0,1-.29,3.22q-.29,1.61-.52,3.45L588.28,375q.23-.92.4-1.84a10,10,0,0,0,.17-1.84q0-3.45-1.21-5a3.82,3.82,0,0,0-3.16-1.55,5.07,5.07,0,0,0-2.24.69,15.18,15.18,0,0,0-2.64,1.78,10.42,10.42,0,0,0-2.24,2.59,6,6,0,0,0-.92,3.22,6.89,6.89,0,0,0,1.55,4.6,19.93,19.93,0,0,0,3.85,3.45q2.3,1.61,5,3.28a21.92,21.92,0,0,1,5,4.31,22.48,22.48,0,0,1,3.85,6.61,27.89,27.89,0,0,1,1.55,10.06A27,27,0,0,1,594.78,417Z"/><path class="cls-3" d="M658.14,389.28a77.29,77.29,0,0,1-5.35,15.29A62.67,62.67,0,0,1,645,417a60.77,60.77,0,0,1-9.26,9.31,39.81,39.81,0,0,1-9.77,5.87,25,25,0,0,1-9.43,2,16.22,16.22,0,0,1-6.9-1.44,15.13,15.13,0,0,1-5.41-4.25,20.65,20.65,0,0,1-3.62-7.25,37.43,37.43,0,0,1-1.32-10.64A61.62,61.62,0,0,1,600.93,397a96.94,96.94,0,0,1,4.37-14.14,77.87,77.87,0,0,1,6.79-13.34,67.26,67.26,0,0,1,8.85-11.21,41.64,41.64,0,0,1,10.35-7.76,24.6,24.6,0,0,1,11.5-2.87,15.87,15.87,0,0,1,8.57,2.13,15.22,15.22,0,0,1,5.29,5.52,25.16,25.16,0,0,1,2.7,7.65,45.76,45.76,0,0,1,.81,8.51A75.63,75.63,0,0,1,658.14,389.28Zm-41.23,21a8,8,0,0,0,1.26,2.42,7.55,7.55,0,0,0,2,1.78,4.82,4.82,0,0,0,2.59.75,13.48,13.48,0,0,0,9.2-3.56,29.38,29.38,0,0,0,6.67-8.74,50.73,50.73,0,0,0,4.08-11,45.28,45.28,0,0,0,1.44-10.7,28.13,28.13,0,0,0-.17-3,12.16,12.16,0,0,0-.69-3,5.91,5.91,0,0,0-1.61-2.36,4.25,4.25,0,0,0-2.93-1A13.08,13.08,0,0,0,632,373.7a21,21,0,0,0-5.58,4.89,34.42,34.42,0,0,0-4.31,6.9,67.81,67.81,0,0,0-3.16,7.82,46.51,46.51,0,0,0-1.9,7.76,44.45,44.45,0,0,0-.58,6.55A8.33,8.33,0,0,0,616.92,410.27Z"/><path class="cls-3" d="M699.08,430.28q-4,.23-8,.69t-7.88,1.21a55.85,55.85,0,0,0-7,1.78q.69-5.18,1.61-11.5T680,409.35q1.21-6.79,2.42-13.69t2.47-13.22q2.87-15.06,6.09-30.71l20.13-2.65q-3.1,13.34-6,26-1.27,5.41-2.53,11.21t-2.42,11.33q-1.15,5.52-2.07,10.7t-1.5,9.2q2.87-.23,6.15-.29t5.81-.06q.11,2.19.34,4.31t.52,3.85q.29,1.73.46,3t.29,1.78c-.61,0-1.21,0-1.78-.06s-1.17-.06-1.78-.06Q703,430,699.08,430.28Z"/><path class="cls-3" d="M772,389.28a77.29,77.29,0,0,1-5.35,15.29A62.67,62.67,0,0,1,758.88,417a60.77,60.77,0,0,1-9.26,9.31,39.81,39.81,0,0,1-9.77,5.87,25,25,0,0,1-9.43,2,16.22,16.22,0,0,1-6.9-1.44,15.13,15.13,0,0,1-5.41-4.25,20.65,20.65,0,0,1-3.62-7.25,37.43,37.43,0,0,1-1.32-10.64A61.62,61.62,0,0,1,714.78,397a96.94,96.94,0,0,1,4.37-14.14,77.87,77.87,0,0,1,6.79-13.34,67.26,67.26,0,0,1,8.85-11.21,41.64,41.64,0,0,1,10.35-7.76,24.6,24.6,0,0,1,11.5-2.87,15.87,15.87,0,0,1,8.57,2.13,15.22,15.22,0,0,1,5.29,5.52,25.16,25.16,0,0,1,2.7,7.65,45.76,45.76,0,0,1,.81,8.51A75.63,75.63,0,0,1,772,389.28Zm-41.23,21a8,8,0,0,0,1.26,2.42,7.55,7.55,0,0,0,2,1.78,4.82,4.82,0,0,0,2.59.75,13.48,13.48,0,0,0,9.2-3.56,29.38,29.38,0,0,0,6.67-8.74,50.73,50.73,0,0,0,4.08-11,45.28,45.28,0,0,0,1.44-10.7,28.13,28.13,0,0,0-.17-3,12.16,12.16,0,0,0-.69-3,5.91,5.91,0,0,0-1.61-2.36,4.25,4.25,0,0,0-2.93-1,13.08,13.08,0,0,0-6.79,1.84,21,21,0,0,0-5.58,4.89,34.42,34.42,0,0,0-4.31,6.9,67.81,67.81,0,0,0-3.16,7.82,46.51,46.51,0,0,0-1.9,7.76,44.45,44.45,0,0,0-.58,6.55A8.33,8.33,0,0,0,730.76,410.27Z"/><path class="cls-3" d="M766.87,434.31q3.45-16.56,6.55-32.08,1.15-6.67,2.47-13.8t2.47-14.09q1.15-7,2.07-13.34t1.38-11.56c1,.08,1.84.11,2.53.11h2.42q1.61,0,3.91-.06t4.6-.17l4.94-.23q1.61,8.05,2.88,15.53,1.26,6.56,2.59,13.46T808,389.8q.46-2.3,1-5.35t1.26-6.38q.69-3.33,1.32-6.73t1.32-6.73q1.61-7.47,3.33-15.41l14-1.72q-3.91,17.59-6.9,33.35-1.38,6.79-2.7,13.74t-2.47,13.34q-1.15,6.38-2,11.84t-1.27,9.14a24.82,24.82,0,0,0-2.7.52l-5.41,1.21L800.86,432a35.47,35.47,0,0,0-4.54,1.27q-.69-9.2-1.5-17.48-.34-3.56-.75-7.3t-.86-7.19q-.46-3.45-.92-6.44t-.92-5.17q-.35,2.19-.92,5.06t-1.15,6.09q-.58,3.22-1.15,6.73t-1.26,6.73q-1.5,7.71-3.22,16.1Z"/><path class="cls-3" d="M876.24,410.33a52.69,52.69,0,0,1-9.14,14.55,36.66,36.66,0,0,1-11.5,8.74,27.64,27.64,0,0,1-11.67,2.88,18.6,18.6,0,0,1-8.11-1.84,18.05,18.05,0,0,1-6.67-5.58,28.34,28.34,0,0,1-4.43-9.37,48.32,48.32,0,0,1-1.61-13.22q0-14.84,4.25-25.87a60.17,60.17,0,0,1,10.75-18.4A44.4,44.4,0,0,1,852,351.28a32.18,32.18,0,0,1,13.86-3.57,18.48,18.48,0,0,1,8,1.61,15.73,15.73,0,0,1,5.58,4.31,17,17,0,0,1,3.16,6.33,29.3,29.3,0,0,1,1,7.65l-15.75,3q-1-4.6-2.76-6.56a5.12,5.12,0,0,0-3.91-2q-2.88,0-6.32,4.08a46.82,46.82,0,0,0-6.44,10.52,87.4,87.4,0,0,0-5.06,14.14A66.26,66.26,0,0,0,841,406q0,7.13,2.13,10.18a6.42,6.42,0,0,0,5.46,3,11.29,11.29,0,0,0,4.77-1.15,14,14,0,0,0,4.43-3.28,19.51,19.51,0,0,0,3.28-4.94,15.64,15.64,0,0,0,1.44-6.15l-12.31,1.84,2.19-11.39L863,392.79q4.37-.57,9.26-1.38t8.57-1.5A61.3,61.3,0,0,1,876.24,410.33Z"/><path class="cls-3" d="M934.08,432.46l-6.21,1q.46-3.79.92-7.47.34-3.22.63-6.44t.52-5.52h-10l-4.6,16.56q-2.53.35-6,.75l-6.44.75-7.25.92q4.6-15.29,9.08-30.13l3.85-13q2-6.78,4-13.51t3.85-12.94q1.84-6.21,3.22-11.38,7.82-.57,15.93-1.38t15.81-2.18q-.35,3.68-.75,9.14t-.75,11.9q-.35,6.44-.69,13.46t-.69,13.8q-.58,15.87-1.27,33.69-3.45.58-6.9.92Zm-11.38-29.9c.3,0,.86,0,1.67-.06l2.53-.12,2.47-.12a9.45,9.45,0,0,0,1.61-.17q0-.69.17-2.36t.34-3.79q.17-2.13.4-4.66t.46-4.94q.46-5.87,1.15-12.65l.69-10-1.73.12-2.64,9.89Z"/><path class="cls-3" d="M948.45,434.31q3.45-16.56,6.55-32.08,1.15-6.67,2.47-13.8T960,374.33q1.15-7,2.07-13.34t1.38-11.56c1,.08,1.84.11,2.53.11h2.42q1.61,0,3.91-.06t4.6-.17l4.94-.23q1.61,8.05,2.88,15.53,1.26,6.56,2.59,13.46t2.36,11.73q.46-2.3,1-5.35t1.26-6.38q.69-3.33,1.32-6.73t1.32-6.73q1.61-7.47,3.33-15.41l14-1.72q-3.91,17.59-6.9,33.35-1.38,6.79-2.7,13.74t-2.47,13.34q-1.15,6.38-2,11.84t-1.27,9.14a24.82,24.82,0,0,0-2.7.52l-5.41,1.21L982.44,432a35.47,35.47,0,0,0-4.54,1.27q-.69-9.2-1.5-17.48-.34-3.56-.75-7.3t-.86-7.19q-.46-3.45-.92-6.44t-.92-5.17q-.35,2.19-.92,5.06t-1.15,6.09q-.58,3.22-1.15,6.73t-1.26,6.73q-1.5,7.71-3.22,16.1Z"/><path class="cls-3" d="M1056.67,387.67a75.4,75.4,0,0,1-4.83,13.34,71.71,71.71,0,0,1-7.65,12.65,57.39,57.39,0,0,1-10.29,10.58,51,51,0,0,1-12.59,7.3,38.53,38.53,0,0,1-14.55,2.76,30.13,30.13,0,0,1-3.22-.17q-1.61-.17-3.22-.4,3.11-15.87,6.09-30.94,1.15-6.32,2.42-13.17t2.42-13.51q1.15-6.67,2.24-12.76t1.78-11q4.94-.92,10-1.73a66,66,0,0,1,10.35-.8,25.41,25.41,0,0,1,10.52,2,18.38,18.38,0,0,1,7,5.41,22.66,22.66,0,0,1,4,8,36.75,36.75,0,0,1,1.27,9.77A51.23,51.23,0,0,1,1056.67,387.67ZM1028.61,379q-1.38,6.21-2.76,12.54t-2.76,13.22q-1.38,6.9-2.65,15.07a24.78,24.78,0,0,0,5.35-5,49.45,49.45,0,0,0,4.89-7.3,83.74,83.74,0,0,0,4.2-8.74q1.9-4.6,3.28-9a76.46,76.46,0,0,0,2.13-8.17,34.72,34.72,0,0,0,.75-6.55,9.15,9.15,0,0,0-2.36-6.67q-2.36-2.42-7.42-2.42Q1030,372.78,1028.61,379Z"/><path class="cls-3" d="M1083.35,433.85q2.64-12.65,5.06-25,1-5.18,2.07-10.81t2-11.1q1-5.46,1.73-10.58t1.32-9.37a31.17,31.17,0,0,0-5.35-.23,15.87,15.87,0,0,1-5.35-.69q.11-1.84.12-4.25t.12-4.83q.11-2.64.23-5.63,3,.23,6,.34t6,.12q5.87,0,11.33-.29t10.12-.69q4.66-.4,9.14-1l-1.27,6.21q-.58,2.65-1.09,5.4t-1,4.72a33.3,33.3,0,0,1-5.12,1q-2.59.29-5.12.75-.81,3.91-1.73,8.68t-1.78,9.89q-.86,5.12-1.67,10.41T1107.5,407q-1.84,11.39-3.45,23.58Z"/><path class="cls-3" d="M1115.55,434q3.22-16.1,6.21-31.39,1.15-6.56,2.42-13.63t2.36-14q1.09-6.9,2.07-13.4t1.55-11.79q2.64.12,4.89.29t4.43.29q2.18.12,4.43.17t4.89.06q-2,8.17-3.85,16.33t-3.51,16.45l11.38-1.26q1.61-8.17,2.88-15.81t3.33-15.81q2.64-.46,5.87-.75l6-.52,6.55-.58q-1.61,5.18-3,11.33t-2.82,12.76q-1.38,6.61-2.64,13.4t-2.3,12.88q-2.53,14.61-4.72,29.9L1144,431q1.49-6.9,2.64-13.46,1.15-5.52,2.36-11.5t1.9-10.24l-11.15,1q-.81,4.37-1.9,10.12t-2,10.92l-2.53,12.42Z"/><path class="cls-3" d="M1201.34,432.46l-6.21,1q.46-3.79.92-7.47.34-3.22.63-6.44t.52-5.52h-10l-4.6,16.56q-2.53.35-6,.75l-6.44.75-7.25.92q4.6-15.29,9.08-30.13l3.85-13q2-6.78,4-13.51t3.85-12.94q1.84-6.21,3.22-11.38,7.82-.57,15.93-1.38t15.81-2.18q-.35,3.68-.75,9.14t-.75,11.9q-.35,6.44-.69,13.46t-.69,13.8q-.58,15.87-1.27,33.69-3.45.58-6.9.92ZM1190,402.57c.3,0,.86,0,1.67-.06l2.53-.12,2.47-.12a9.45,9.45,0,0,0,1.61-.17q0-.69.17-2.36t.34-3.79q.17-2.13.4-4.66t.46-4.94q.46-5.87,1.15-12.65l.69-10-1.73.12-2.64,9.89Z"/><path class="cls-3" d="M1215.71,434.31q3.45-16.56,6.55-32.08,1.15-6.67,2.47-13.8t2.47-14.09q1.15-7,2.07-13.34t1.38-11.56c1,.08,1.84.11,2.53.11h2.42q1.61,0,3.91-.06t4.6-.17l4.94-.23q1.61,8.05,2.88,15.53,1.26,6.56,2.59,13.46t2.36,11.73q.46-2.3,1-5.35t1.26-6.38q.69-3.33,1.32-6.73t1.32-6.73q1.61-7.47,3.33-15.41l14-1.72q-3.91,17.59-6.9,33.35-1.38,6.79-2.7,13.74t-2.47,13.34q-1.15,6.38-2,11.84t-1.27,9.14a24.82,24.82,0,0,0-2.7.52l-5.41,1.21-6.09,1.38a35.47,35.47,0,0,0-4.54,1.27q-.69-9.2-1.5-17.48-.34-3.56-.75-7.3t-.86-7.19q-.46-3.45-.92-6.44t-.92-5.17q-.35,2.19-.92,5.06t-1.15,6.09q-.58,3.22-1.15,6.73t-1.26,6.73q-1.5,7.71-3.22,16.1Z"/><path class="cls-3" d="M1267.92,433.85q3.45-16.1,6.44-31.28,1.15-6.56,2.42-13.57t2.36-13.92q1.09-6.9,2-13.4t1.32-11.79q2.64.23,6,.4t6.21.4q3.45.23,6.9.23-.12.46-.34,1.72t-.58,3q-.34,1.78-.75,4T1299,364l-2.07,11.38.69-.11q1.15-1.84,3.28-5.12t4.43-7q2.3-3.68,4.49-7.07t3.68-5.81q5.75-.46,11.5-1t11.5-1.5q-5.41,7.25-10.46,14.26-2.19,3-4.43,6.21t-4.43,6.33q-2.19,3.11-4.08,6t-3.39,5.29q2.53,11.62,6,22.42t7,22.08q-2.65-.11-5.41-.17t-5.4-.06q-3.34,0-6.44.06t-6.44.17q-1-7.48-2.24-15.7t-2.24-15.7l-2.07,2.42q-.81,3.45-1.78,8.51t-1.9,9.78q-1,5.52-2.19,11.38Z"/><path class="cls-3" d="M1368.72,417a28.4,28.4,0,0,1-6.67,9,29.73,29.73,0,0,1-9.89,5.87,35.57,35.57,0,0,1-12.25,2.07,19.25,19.25,0,0,1-9.2-2.47,29.12,29.12,0,0,1-8.85-7.88l8.51-16.67a12.65,12.65,0,0,0,2.42,3,18.12,18.12,0,0,0,3.62,2.7,27.12,27.12,0,0,0,4,1.9,10.51,10.51,0,0,0,3.62.75,9.74,9.74,0,0,0,2.88-.46,9.3,9.3,0,0,0,2.76-1.38,7.54,7.54,0,0,0,2-2.13,5.24,5.24,0,0,0,.75-2.82,8.32,8.32,0,0,0-1.78-5.12,25.88,25.88,0,0,0-4.43-4.49q-2.65-2.13-5.75-4.31a52.86,52.86,0,0,1-5.69-4.6,25.92,25.92,0,0,1-4.43-5.41,12.46,12.46,0,0,1-1.84-6.67,19.29,19.29,0,0,1,3.56-11.16,35.17,35.17,0,0,1,8.91-8.91,47.2,47.2,0,0,1,11.67-5.92,36.71,36.71,0,0,1,12-2.18,22.4,22.4,0,0,1,5.87.75,12.53,12.53,0,0,1,4.77,2.42,12.19,12.19,0,0,1,3.22,4.2,14.64,14.64,0,0,1,1.21,6.32,18.39,18.39,0,0,1-.29,3.22q-.29,1.61-.52,3.45L1362.22,375q.23-.92.4-1.84a10,10,0,0,0,.17-1.84q0-3.45-1.21-5a3.82,3.82,0,0,0-3.16-1.55,5.07,5.07,0,0,0-2.24.69,15.18,15.18,0,0,0-2.64,1.78,10.42,10.42,0,0,0-2.24,2.59,6,6,0,0,0-.92,3.22,6.89,6.89,0,0,0,1.55,4.6,19.93,19.93,0,0,0,3.85,3.45q2.3,1.61,5,3.28a21.92,21.92,0,0,1,5,4.31,22.48,22.48,0,0,1,3.85,6.61,27.89,27.89,0,0,1,1.55,10.06A27,27,0,0,1,1368.72,417Z"/><path class="cls-3" d="M636.18,570.35q-3.8.81-6.67,1.5,1.38-4.94,2.7-11.1t2.65-12.94q1.32-6.79,2.53-13.74t2.36-13.4q2.41-15.29,4.83-31.62l38.52-2-3.33,14.15H661.71l-3.57,20.47q3.56-.11,6.79-.12h5.41q2.76,0,4.25-.11-.35,3.22-.86,6.32t-1,6.21q-1.5,0-4.25-.06t-5.69-.17l-6.61-.23-5.29,33.93q-3.91.69-7.71,1.5Q640,569.55,636.18,570.35Z"/><path class="cls-3" d="M730.65,527.28a77.29,77.29,0,0,1-5.35,15.29A62.67,62.67,0,0,1,717.54,555a60.77,60.77,0,0,1-9.26,9.31,39.81,39.81,0,0,1-9.77,5.87,25,25,0,0,1-9.43,2,16.22,16.22,0,0,1-6.9-1.44,15.13,15.13,0,0,1-5.41-4.25,20.65,20.65,0,0,1-3.62-7.25,37.43,37.43,0,0,1-1.32-10.64A61.62,61.62,0,0,1,673.44,535a96.94,96.94,0,0,1,4.37-14.14,77.87,77.87,0,0,1,6.79-13.34,67.26,67.26,0,0,1,8.85-11.21,41.64,41.64,0,0,1,10.35-7.76,24.6,24.6,0,0,1,11.5-2.87,15.87,15.87,0,0,1,8.57,2.13,15.22,15.22,0,0,1,5.29,5.52,25.16,25.16,0,0,1,2.7,7.65,45.76,45.76,0,0,1,.81,8.51A75.63,75.63,0,0,1,730.65,527.28Zm-41.23,21a8,8,0,0,0,1.26,2.42,7.55,7.55,0,0,0,2,1.78,4.82,4.82,0,0,0,2.59.75,13.48,13.48,0,0,0,9.2-3.56,29.38,29.38,0,0,0,6.67-8.74,50.73,50.73,0,0,0,4.08-11,45.28,45.28,0,0,0,1.44-10.7,28.13,28.13,0,0,0-.17-3,12.16,12.16,0,0,0-.69-3,5.91,5.91,0,0,0-1.61-2.36,4.25,4.25,0,0,0-2.93-1,13.08,13.08,0,0,0-6.79,1.84,21,21,0,0,0-5.58,4.89,34.42,34.42,0,0,0-4.31,6.9,67.81,67.81,0,0,0-3.16,7.82,46.51,46.51,0,0,0-1.9,7.76,44.45,44.45,0,0,0-.58,6.55A8.33,8.33,0,0,0,689.43,548.27Z"/><path class="cls-3" d="M725.42,571.85q3.11-15.29,6-29.9,1-6.21,2.3-12.94t2.36-13.34q1.09-6.61,2.07-12.77t1.55-11.21a81.58,81.58,0,0,1,14.15-3,118,118,0,0,1,15.06-1,22.58,22.58,0,0,1,7.42,1,10.73,10.73,0,0,1,4.6,2.93,11,11,0,0,1,2.36,4.43,21.4,21.4,0,0,1,.69,5.63,26.22,26.22,0,0,1-1.61,9,37.91,37.91,0,0,1-4.31,8.4,43.09,43.09,0,0,1-6.21,7.24,33.38,33.38,0,0,1-7.53,5.35q2.07,4.6,4.43,10.06t4.43,10.41q2.3,5.75,4.72,11.5L760,569.89q-2.3-7.36-4.14-13.8-.81-2.64-1.61-5.46t-1.5-5.35q-.69-2.53-1.15-4.54a25.55,25.55,0,0,1-.57-3.28l-1.5.46q-.69,3.68-1.67,8.63t-1.78,9.54q-1,5.41-2.07,10.93Zm27-49.91a16.09,16.09,0,0,0,5.35-1.84,37.44,37.44,0,0,0,6-3.85,34.22,34.22,0,0,0,4.95-4.66q2.07-2.41,2.07-4.25a2.62,2.62,0,0,0-.8-2,5.41,5.41,0,0,0-2.24-1.15,15.68,15.68,0,0,0-3.16-.52q-1.72-.11-3.56-.12-1.27,0-2.59.06t-2.36.06Z"/><path class="cls-3" d="M834.44,570.46l-6.21,1q.46-3.79.92-7.47.34-3.22.63-6.44t.52-5.52h-10l-4.6,16.56q-2.53.35-6,.75l-6.44.75L796,571q4.6-15.29,9.08-30.13l3.85-13q2-6.78,4-13.51t3.85-12.94q1.84-6.21,3.22-11.38,7.82-.57,15.93-1.38t15.81-2.18q-.35,3.68-.75,9.14t-.75,11.9Q850,514,849.62,521t-.69,13.8q-.58,15.87-1.27,33.69-3.45.58-6.9.92Zm-11.38-29.9c.3,0,.86,0,1.67-.06l2.53-.12,2.47-.12a9.45,9.45,0,0,0,1.61-.17q0-.69.17-2.36t.34-3.79q.17-2.13.4-4.66t.46-4.94q.46-5.87,1.15-12.65l.69-10-1.73.12-2.64,9.89Z"/><path class="cls-3" d="M872.44,568.28q-4,.23-8,.69t-7.88,1.21a55.85,55.85,0,0,0-7,1.78q.69-5.18,1.61-11.5t2.13-13.11q1.21-6.79,2.42-13.69t2.47-13.22q2.87-15.06,6.09-30.71l20.13-2.65q-3.1,13.34-6,26-1.27,5.41-2.53,11.21t-2.42,11.33q-1.15,5.52-2.07,10.7t-1.5,9.2q2.87-.23,6.15-.29t5.81-.06q.11,2.19.34,4.31t.52,3.85q.29,1.73.46,3t.29,1.78c-.61,0-1.21,0-1.78-.06S880.59,568,880,568Q876.41,568,872.44,568.28Z"/><path class="cls-3" d="M907.17,568.28q-4,.23-8,.69t-7.88,1.21a55.85,55.85,0,0,0-7,1.78q.69-5.18,1.61-11.5t2.13-13.11q1.21-6.79,2.42-13.69T893,520.44q2.87-15.06,6.09-30.71l20.13-2.65q-3.1,13.34-6,26-1.27,5.41-2.53,11.21t-2.42,11.33q-1.15,5.52-2.07,10.7t-1.5,9.2q2.87-.23,6.15-.29t5.81-.06q.11,2.19.34,4.31t.52,3.85q.29,1.73.46,3t.29,1.78c-.61,0-1.21,0-1.78-.06s-1.17-.06-1.78-.06Q911.14,568,907.17,568.28Z"/><path class="cls-3" d="M950.47,571.85q2.64-12.65,5.06-25,1-5.18,2.07-10.81t2-11.1q1-5.46,1.73-10.58t1.32-9.37a31.17,31.17,0,0,0-5.35-.23,15.87,15.87,0,0,1-5.35-.69q.11-1.84.12-4.25t.12-4.83q.11-2.64.23-5.63,3,.23,6,.34t6,.12q5.87,0,11.33-.29t10.12-.69q4.66-.4,9.14-1l-1.27,6.21q-.58,2.65-1.09,5.4t-1,4.72a33.3,33.3,0,0,1-5.12,1q-2.59.29-5.12.75-.81,3.91-1.73,8.68t-1.78,9.89q-.86,5.12-1.67,10.41T974.62,545q-1.84,11.39-3.45,23.58Z"/><path class="cls-3" d="M982.67,572q3.22-16.1,6.21-31.39,1.15-6.56,2.42-13.63t2.36-14q1.09-6.9,2.07-13.4t1.55-11.79q2.64.12,4.89.29t4.43.29q2.18.12,4.43.17t4.89.06q-2,8.17-3.85,16.33t-3.51,16.45l11.38-1.26q1.61-8.17,2.88-15.81t3.33-15.81q2.64-.46,5.87-.75l6-.52,6.55-.58q-1.61,5.18-3,11.33t-2.82,12.76q-1.38,6.61-2.64,13.4t-2.3,12.88q-2.53,14.61-4.72,29.9L1011.07,569q1.49-6.9,2.64-13.46,1.15-5.52,2.36-11.5t1.9-10.24l-11.15,1q-.81,4.37-1.9,10.12t-2,10.92l-2.53,12.42Z"/><path class="cls-3" d="M1033.38,571.85l15.07-81.77,36.34-3.1q-.81,2.53-1.38,5.17-.58,2.19-1.09,4.54t-.86,4.2q-1.15.12-3.28.17l-4.54.12q-2.42.06-4.89.06h-4.31l-4,20.58q3.56-.23,6.67-.34,2.53-.11,5.17-.12t3.91-.12q-.46,3.22-.86,6.33t-1,6.33q-1.15.12-3.74.17t-5.23.17l-6.55.23-3.91,21.16,16.79-2.64-1.15,13.11Z"/><path class="cls-3" d="M1101.23,570.35q-3.8.81-6.67,1.5,1.38-4.94,2.7-11.1t2.65-12.94q1.32-6.79,2.53-13.74t2.36-13.4q2.41-15.29,4.83-31.62l38.52-2-3.33,14.15h-18.05l-3.57,20.47q3.56-.11,6.79-.12h5.41q2.76,0,4.25-.11-.35,3.22-.86,6.32t-1,6.21q-1.5,0-4.25-.06t-5.69-.17l-6.61-.23-5.29,33.93q-3.91.69-7.71,1.5Q1105,569.55,1101.23,570.35Z"/><path class="cls-3" d="M1148.78,569.72q-3,.29-6.27.69l-5.81.75a22.3,22.3,0,0,0-2.82.46q1.15-4.94,2.36-11t2.47-12.65q1.26-6.61,2.42-13.4t2.18-13.11q2.42-14.72,4.83-30.25l17.94-2.87q-2.65,15.41-5.18,30.25-1,6.33-2.13,13.11t-2.19,13.46q-1.09,6.67-2,12.94t-1.73,11.33Q1151.83,569.43,1148.78,569.72Z"/><path class="cls-3" d="M1205,555a28.4,28.4,0,0,1-6.67,9,29.73,29.73,0,0,1-9.89,5.87,35.57,35.57,0,0,1-12.25,2.07,19.25,19.25,0,0,1-9.2-2.47,29.12,29.12,0,0,1-8.85-7.88l8.51-16.67a12.65,12.65,0,0,0,2.42,3,18.12,18.12,0,0,0,3.62,2.7,27.12,27.12,0,0,0,4,1.9,10.51,10.51,0,0,0,3.62.75,9.74,9.74,0,0,0,2.88-.46,9.3,9.3,0,0,0,2.76-1.38,7.54,7.54,0,0,0,2-2.13,5.24,5.24,0,0,0,.75-2.82,8.32,8.32,0,0,0-1.78-5.12,25.88,25.88,0,0,0-4.43-4.49q-2.65-2.13-5.75-4.31a52.86,52.86,0,0,1-5.69-4.6,25.92,25.92,0,0,1-4.43-5.41,12.46,12.46,0,0,1-1.84-6.67,19.29,19.29,0,0,1,3.56-11.16,35.17,35.17,0,0,1,8.91-8.91A47.2,47.2,0,0,1,1189,490a36.71,36.71,0,0,1,12-2.18,22.4,22.4,0,0,1,5.87.75,12.53,12.53,0,0,1,4.77,2.42,12.19,12.19,0,0,1,3.22,4.2,14.64,14.64,0,0,1,1.21,6.32,18.39,18.39,0,0,1-.29,3.22q-.29,1.61-.52,3.45L1198.52,513q.23-.92.4-1.84a10,10,0,0,0,.17-1.84q0-3.45-1.21-5a3.82,3.82,0,0,0-3.16-1.55,5.07,5.07,0,0,0-2.24.69,15.18,15.18,0,0,0-2.64,1.78,10.42,10.42,0,0,0-2.24,2.59,6,6,0,0,0-.92,3.22,6.89,6.89,0,0,0,1.55,4.6,19.93,19.93,0,0,0,3.85,3.45q2.3,1.61,5,3.28a21.92,21.92,0,0,1,5,4.31,22.48,22.48,0,0,1,3.85,6.61,27.89,27.89,0,0,1,1.55,10.06A27,27,0,0,1,1205,555Z"/><path class="cls-3" d="M1206.91,572q3.22-16.1,6.21-31.39,1.15-6.56,2.42-13.63t2.36-14q1.09-6.9,2.07-13.4t1.55-11.79q2.64.12,4.89.29t4.43.29q2.18.12,4.43.17t4.89.06q-2,8.17-3.85,16.33t-3.51,16.45l11.38-1.26q1.61-8.17,2.88-15.81t3.33-15.81q2.64-.46,5.87-.75l6-.52,6.55-.58q-1.61,5.18-3,11.33t-2.82,12.76q-1.38,6.61-2.64,13.4T1258,537q-2.53,14.61-4.72,29.9L1235.32,569q1.49-6.9,2.64-13.46,1.15-5.52,2.36-11.5t1.9-10.24l-11.15,1q-.81,4.37-1.9,10.12t-2,10.92l-2.53,12.42Z"/><path class="cls-3" d="M1280.11,566.9a11.5,11.5,0,0,1-2.82,3.85,13.47,13.47,0,0,1-4.6,2.64,18.94,18.94,0,0,1-6.33,1,10.14,10.14,0,0,1-4.37-.92,8.51,8.51,0,0,1-3.16-2.47,12.35,12.35,0,0,1-1.9-3.51,11.65,11.65,0,0,1-.69-3.91,12.83,12.83,0,0,1,.69-4.2,9.93,9.93,0,0,1,2.13-3.57,11.85,11.85,0,0,1,3.57-2.59,11.6,11.6,0,0,1,5.12-1q6.67,0,10,3.16a9.68,9.68,0,0,1,3.33,7.19A10.64,10.64,0,0,1,1280.11,566.9Zm-6.84-22.2-6.67.46q3.56-14.14,7-28.17t7.07-28.17q2.18-.35,5-.69t5.69-.8q2.87-.46,5.58-.8t4.54-.69q-6.21,14.49-11.33,29.15t-10.18,29.5Q1276.6,544.48,1273.27,544.71Z"/></g><g id="Dolphin"><path class="cls-4" d="M592.85,798.55s-11,8.06-46.35,8.34c-8.35.06-27.41-2.4-53.29-5.81-31.83-4.18-74-9.81-119.12-13.85,21-3.67,69.11-11.07,88.38-13.83-1.63.36-28.71,7-30.43,10.84C592.85,787.22,592.85,798.35,592.85,798.55Z"/><g id="bottom_teeth" data-name="bottom teeth"><path class="cls-5" d="M494,802.56l-1.18-.09s-2.94-.1-2.9-1.29l.8-1.52c.63-1.11,1.1-2,2.71-1.91l.55,0c1.61.13,2,1.18,2.66,2.41l.73,1.6C497.29,803,494,802.56,494,802.56Z"/><path class="cls-5" d="M586.53,802.31l-1.11.34s-2.7,1-3.31-.11l-.1-1.65c0-1.21-.11-2.22,1.4-2.68l.52-.16c1.52-.46,2.46.33,3.7,1.19l1.53,1.17C589.77,801.49,586.53,802.31,586.53,802.31Z"/><path class="cls-5" d="M577.39,805.08l-1.14.25s-2.79.74-3.26-.39l.1-1.66c.12-1.22.16-2.23,1.72-2.57l.53-.11c1.56-.33,2.4.53,3.51,1.5l1.37,1.3C580.7,804.53,577.39,805.08,577.39,805.08Z"/><path class="cls-5" d="M567.35,806.65l-1.17.14s-2.88.47-3.15-.69l.38-1.64c.32-1.2.54-2.21,2.14-2.39l.54-.06c1.6-.18,2.27.76,3.21,1.83l1.13,1.42C570.7,806.42,567.35,806.65,567.35,806.65Z"/><path class="cls-5" d="M556.83,807.36l-1.17.08s-2.91.32-3.1-.86l.5-1.62c.41-1.18.69-2.18,2.3-2.28l.55,0c1.61-.1,2.22.88,3.07,2l1,1.48C560.19,807.3,556.83,807.36,556.83,807.36Z"/><path class="cls-5" d="M546.41,808h-1.18s-2.93.09-3-1.1l.64-1.58c.51-1.15.89-2.12,2.5-2.09h.55c1.61,0,2.13,1.05,2.88,2.23l.89,1.56C549.77,808.16,546.41,808,546.41,808Z"/><path class="cls-5" d="M535.91,807.44l-1.18-.06s-2.94,0-2.94-1.21l.75-1.55c.59-1.12,1-2.08,2.64-2l.55,0c1.61.09,2.06,1.12,2.74,2.33l.79,1.58C539.25,807.77,535.91,807.44,535.91,807.44Z"/><path class="cls-5" d="M524.89,806.19l-1.18-.09s-2.94-.1-2.9-1.29l.8-1.52c.63-1.11,1.1-2,2.71-1.91l.55,0c1.61.13,2,1.18,2.66,2.41l.73,1.6C528.22,806.62,524.89,806.19,524.89,806.19Z"/><path class="cls-5" d="M514.7,805l-1.18-.09s-2.94-.1-2.9-1.29l.8-1.52c.63-1.11,1.1-2,2.71-1.91l.55,0c1.61.13,2,1.18,2.66,2.41l.73,1.6C518,805.44,514.7,805,514.7,805Z"/><path class="cls-5" d="M504.27,803.73l-1.18-.09s-2.94-.1-2.9-1.29l.8-1.52c.63-1.11,1.1-2,2.71-1.91l.55,0c1.61.13,2,1.18,2.66,2.41l.73,1.6C507.61,804.16,504.27,803.73,504.27,803.73Z"/><path class="cls-5" d="M483.83,801.28l-1.18-.09s-2.94-.1-2.9-1.29l.8-1.52c.63-1.11,1.1-2,2.71-1.91l.55,0c1.61.13,2,1.18,2.66,2.41l.73,1.6C487.16,801.71,483.83,801.28,483.83,801.28Z"/><path class="cls-5" d="M473,800.11l-1.18-.09s-2.94-.1-2.9-1.29l.8-1.52c.63-1.11,1.1-2,2.71-1.91l.55,0c1.61.13,2,1.18,2.66,2.41l.73,1.6C476.32,800.54,473,800.11,473,800.11Z"/><path class="cls-5" d="M462.43,798.83l-1.18-.09s-2.94-.1-2.9-1.29l.8-1.52c.63-1.11,1.1-2,2.71-1.91l.55,0c1.61.13,2,1.18,2.66,2.41l.73,1.6C465.76,799.26,462.43,798.83,462.43,798.83Z"/><path class="cls-5" d="M451,797.66l-1.18-.09s-2.94-.1-2.9-1.29l.8-1.52c.63-1.11,1.1-2,2.71-1.91l.55,0c1.61.13,2,1.18,2.66,2.41l.73,1.6C454.38,798.09,451,797.66,451,797.66Z"/><path class="cls-5" d="M590.58,799.29l.58,0s1.42.23,1.76-.85L593,797c0-1.07.09-2-.71-2l-.27,0c-.8-.05-1.31.85-2,1.89l-.82,1.37C588.87,799.31,590.58,799.29,590.58,799.29Z"/><path class="cls-5" d="M583.88,796.15l1.15.17s2.82.55,3.25-.61l-.15-1.65c-.15-1.21-.23-2.22-1.8-2.44l-.53-.08c-1.57-.22-2.38.7-3.47,1.74L581,794.68C580.56,795.83,583.88,796.15,583.88,796.15Z"/><path class="cls-5" d="M574.37,794.27l1.15.17s2.82.55,3.25-.61l-.15-1.65c-.15-1.21-.23-2.22-1.8-2.44l-.53-.08c-1.57-.22-2.38.7-3.47,1.74l-1.33,1.39C571.05,794,574.37,794.27,574.37,794.27Z"/><path class="cls-5" d="M564.52,792.52l1.15.17s2.82.55,3.25-.61l-.15-1.65c-.15-1.21-.23-2.22-1.8-2.44l-.53-.08c-1.57-.22-2.38.7-3.47,1.74l-1.33,1.39C561.2,792.21,564.52,792.52,564.52,792.52Z"/><path class="cls-5" d="M554,791.24l1.15.16s2.82.52,3.25-.64l-.16-1.65c-.16-1.2-.25-2.21-1.82-2.42l-.54-.07c-1.57-.21-2.38.72-3.45,1.78l-1.32,1.4C550.72,791,554,791.24,554,791.24Z"/><path class="cls-5" d="M544,790.38l1.15.17s2.82.55,3.25-.61l-.15-1.65c-.15-1.21-.23-2.22-1.8-2.44l-.53-.08c-1.57-.22-2.38.7-3.47,1.74l-1.33,1.39C540.69,790.06,544,790.38,544,790.38Z"/><path class="cls-5" d="M533.87,789.66l1.15.17s2.82.55,3.25-.61l-.15-1.65c-.15-1.21-.23-2.22-1.8-2.44l-.53-.08c-1.57-.22-2.38.7-3.47,1.74L531,788.18C530.55,789.34,533.87,789.66,533.87,789.66Z"/><path class="cls-5" d="M523.14,788.91l1.15.14s2.83.46,3.23-.71l-.2-1.64c-.19-1.2-.29-2.21-1.87-2.38l-.54-.06c-1.58-.17-2.36.77-3.42,1.85l-1.29,1.43C519.81,788.69,523.14,788.91,523.14,788.91Z"/><path class="cls-5" d="M512.1,788.25l1.15.17s2.82.53,3.25-.63l-.16-1.65c-.16-1.2-.24-2.22-1.81-2.43l-.53-.07c-1.57-.21-2.38.71-3.46,1.76l-1.33,1.4C508.78,788,512.1,788.25,512.1,788.25Z"/><path class="cls-5" d="M500.26,787.6l1.15.17s2.82.53,3.25-.63l-.16-1.65c-.16-1.2-.24-2.22-1.81-2.43l-.53-.07c-1.57-.21-2.38.71-3.46,1.76l-1.33,1.4C496.93,787.3,500.26,787.6,500.26,787.6Z"/><path class="cls-5" d="M489,787.13l1.15.17s2.82.53,3.25-.63l-.16-1.65c-.16-1.2-.24-2.22-1.81-2.43l-.53-.07c-1.57-.21-2.38.71-3.46,1.76l-1.33,1.4C485.65,786.84,489,787.13,489,787.13Z"/><path class="cls-5" d="M477.94,786.93l1.15.17s2.82.53,3.25-.63l-.16-1.65c-.16-1.2-.24-2.22-1.81-2.43l-.53-.07c-1.57-.21-2.38.71-3.46,1.76l-1.33,1.4C474.61,786.64,477.94,786.93,477.94,786.93Z"/><path class="cls-5" d="M468.42,786.54l1.15.17s2.82.53,3.25-.63l-.16-1.65c-.16-1.2-.24-2.22-1.81-2.43l-.53-.07c-1.57-.21-2.38.71-3.46,1.76l-1.33,1.4C465.1,786.24,468.42,786.54,468.42,786.54Z"/><path class="cls-5" d="M457.62,786.31l1.15.17s2.82.53,3.25-.63l-.16-1.65c-.16-1.2-.24-2.22-1.81-2.43l-.53-.07c-1.57-.21-2.38.71-3.46,1.76l-1.33,1.4C454.29,786,457.62,786.31,457.62,786.31Z"/></g><g id="top_teeth" data-name="top teeth"><path class="cls-5" d="M584.06,738.89l1-.53s2.5-1.41,3.28-.45l.38,1.61c.24,1.19.49,2.17-.93,2.88l-.48.24c-1.42.71-2.48.09-3.85-.55l-1.71-.89C581,740.24,584.06,738.89,584.06,738.89Z"/><path class="cls-5" d="M575.86,743.76l1.07-.44s2.6-1.21,3.31-.2l.26,1.63c.14,1.21.32,2.2-1.15,2.8l-.5.2c-1.47.6-2.48-.1-3.79-.85l-1.63-1C572.71,744.87,575.86,743.76,575.86,743.76Z"/><path class="cls-5" d="M566.86,748.06l1.1-.38s2.67-1,3.31,0l.15,1.65c.07,1.21.18,2.22-1.32,2.73l-.51.17c-1.5.51-2.47-.25-3.73-1.08L564.29,750C563.65,749,566.86,748.06,566.86,748.06Z"/><path class="cls-5" d="M556.64,751.8l1.1-.37s2.68-1,3.31,0l.14,1.65c.06,1.21.16,2.22-1.35,2.71l-.51.17c-1.51.49-2.47-.28-3.72-1.12l-1.55-1.14C553.43,752.68,556.64,751.8,556.64,751.8Z"/><path class="cls-5" d="M547,754.8l1.13-.28s2.76-.8,3.3.31v1.65c0,1.21,0,2.23-1.56,2.59l-.53.12c-1.54.37-2.44-.48-3.62-1.42l-1.46-1.26C543.75,755.42,547,754.8,547,754.8Z"/><path class="cls-5" d="M537.13,756.91l1.12-.31s2.73-.89,3.3.21l.05,1.65c0,1.22,0,2.23-1.48,2.64l-.52.14c-1.53.41-2.45-.4-3.66-1.3l-1.49-1.22C533.87,757.63,537.13,756.91,537.13,756.91Z"/><path class="cls-5" d="M527.39,759.07l1.13-.25s2.77-.74,3.29.38l0,1.65c-.07,1.21-.07,2.23-1.62,2.56l-.53.11c-1.55.33-2.43-.53-3.58-1.49l-1.43-1.29C524.1,759.62,527.39,759.07,527.39,759.07Z"/><path class="cls-5" d="M517.38,761.06l1.14-.22s2.79-.67,3.28.46l-.07,1.65c-.1,1.21-.12,2.22-1.68,2.52l-.53.1c-1.56.29-2.41-.59-3.55-1.58l-1.39-1.33C514.08,761.53,517.38,761.06,517.38,761.06Z"/><path class="cls-5" d="M507.27,763.12l1.14-.22s2.79-.67,3.28.47l-.07,1.65c-.1,1.21-.13,2.22-1.69,2.52l-.53.1c-1.56.29-2.41-.59-3.55-1.58l-1.39-1.33C504,763.58,507.27,763.12,507.27,763.12Z"/><path class="cls-5" d="M496.62,765.24l1.13-.25s2.77-.75,3.29.38l0,1.65c-.07,1.21-.07,2.23-1.62,2.56l-.53.11c-1.55.34-2.43-.53-3.59-1.49l-1.43-1.29C493.34,765.79,496.62,765.24,496.62,765.24Z"/><path class="cls-5" d="M485.85,767.72l1.13-.24s2.78-.72,3.28.41l0,1.65c-.08,1.21-.09,2.23-1.64,2.54l-.53.11c-1.55.32-2.42-.55-3.57-1.53l-1.42-1.31C482.56,768.24,485.85,767.72,485.85,767.72Z"/><path class="cls-5" d="M475.66,769.52l1.13-.24s2.78-.71,3.28.42l0,1.65c-.08,1.21-.09,2.23-1.65,2.54l-.53.11c-1.55.32-2.42-.55-3.57-1.53l-1.41-1.31C472.37,770,475.66,769.52,475.66,769.52Z"/><path class="cls-5" d="M465.37,771.26l1.14-.19s2.81-.6,3.27.55l-.12,1.65c-.13,1.21-.18,2.22-1.75,2.47l-.53.09c-1.57.25-2.4-.65-3.51-1.67l-1.36-1.36C462.06,771.64,465.37,771.26,465.37,771.26Z"/><path class="cls-5" d="M454.75,773l1.14-.19s2.81-.6,3.27.55L459,775c-.13,1.21-.18,2.22-1.75,2.47l-.53.09c-1.57.25-2.4-.65-3.51-1.67l-1.36-1.36C451.44,773.4,454.75,773,454.75,773Z"/><path class="cls-5" d="M590.17,733.34l.9-.73s2.14-1.91,3.11-1.14a9.93,9.93,0,0,1,.54,1.45c.21,1.36.56,1.81-.32,3a4.39,4.39,0,0,1-.58.68c-1.18,1.06-2,.37-3.51,0l-1.86-.51C587.48,735.31,590.17,733.34,590.17,733.34Z"/></g><path class="cls-6" d="M594.43,731.39s-9.22,14.26-43.31,23.56c-13.78,3.76-58.64,14.47-115.85,22.64a1.45,1.45,0,0,0-.36,0c-19.27,2.77-39.82,5.94-60.82,9.6,45.16,4,87.27,9.66,119.1,13.84-27.17,6.83-58.07,12.62-90,18.46q-13.38,2.46-26.9,5c-14.59,2.68-29.23,5.46-43.73,8.41-.86.18-1.73.33-2.57.54-1.46.3-2.92.57-4.38.89-2.71.57-5.46,1.13-8.14,1.73-37.76,8.11-73.67,17.69-103.2,30.54-2.15,1-4.27,1.91-6.35,2.89-1.1.51-2.21,1-3.31,1.58s-2.33,1.16-3.49,1.73-2.21,1.13-3.31,1.7a0,0,0,0,0,0,0c-1.46.78-2.89,1.55-4.35,2.36a508.12,508.12,0,0,0-60.07,39.28c-29.77,22.25-55.51,28.19-72.21,51.72-3.88,5.22-7.25.45-10.68,5.76-4.15-1.61-7.34,12.94-11.39,11.13-6.77-3-13.09,6.23-19.6,2.65A264.29,264.29,0,0,1-111.75,806.49c-.24-1.16-.45-2.33-.66-3.49-.84-4.71-1.55-9.46-2.12-14.2A264,264,0,0,1-99,662.46c.33-.89.69-1.79,1-2.65,173.62-92.31,364.42-92.31,468.19-43.61,39.37,18.49,66.22,44,74.89,74.06,0,0,17.15-.45,39.85.84C527.59,693.51,600.79,710.09,594.43,731.39Z"/><path class="cls-7" d="M592.85,798.56a3.79,3.79,0,0,1-.63,1.94c-1.25,2.24-1.73,3-5.94,7.43-13.27,14-40.74,20.13-76.27,22-34.87,1.91-77.73-1.07-122.5-4.62-3.73-.3-15-.15-18.22.48-12.32,2.3-24.58,4.62-36.69,7.07-.86.18-1.73.33-2.57.54-1.46.3-2.92.57-4.38.89-2.71.57-5.46,1.13-8.14,1.73-37.64,7.93-73.19,17.3-103.2,30.54-2.15,1-4.27,1.91-6.35,2.89-1.1.51-2.21,1-3.31,1.58s-2.33,1.13-3.49,1.73-2.21,1.13-3.31,1.7a0,0,0,0,0,0,0c-1.46.78-2.89,1.55-4.35,2.36a508.12,508.12,0,0,0-60.07,39.28C103.63,938.42,76,962.25,53.2,981a273.88,273.88,0,0,1-23.32,16.17c-24.49,14.47-72.24,34-72.24,59.13-35.55,0-55.66-7.32-55.66-26.95,0-18.85,25.47-38.83,55.09-52.11a.83.83,0,0,0,.57-.27A200.39,200.39,0,0,1-12.6,966.45a201.92,201.92,0,0,0,33.23-16.37c26-15.6,51.81-37,86-60.82a761.86,761.86,0,0,1,69.59-43.49c18.76-10.35,41-19.36,65.2-27.23,41.22-13.42,88-23.53,132.7-31.32,45.16,4,87.27,9.66,119.1,13.84,25.89,3.43,44.95,5.88,53.3,5.82C581.85,806.61,592.85,798.56,592.85,798.56Z"/><path id="fin" class="cls-6" d="M116.6,1045.22C34,1140.4,68,1011,14.12,924,41.61,885.3,81.54,844.55,130.5,808,130.5,808,209.54,938.05,116.6,1045.22Z"/><path class="cls-8" d="M384.79,711.59a17.51,17.51,0,0,1,3.5,24.68A17.91,17.91,0,0,1,363.4,740a17.51,17.51,0,0,1-3.5-24.68A17.91,17.91,0,0,1,384.79,711.59Z"/></g></svg>