<svg xmlns="http://www.w3.org/2000/svg" viewBox="0 0 512 512"><defs><style>.a{fill:#cccccb;}.b{fill:#fff;}.c{fill:#cccbc7;}</style></defs><title>self</title><circle class="a" cx="256" cy="256" r="256"/><path class="b" d="M383.92,169.64V341.91a23.87,23.87,0,0,1-23.8,23.79h-83.7L262.1,380a8.66,8.66,0,0,1-12.2,0L235.58,365.7H151a23.87,23.87,0,0,1-23.79-23.79V169.64A23.86,23.86,0,0,1,151,145.85H360.12A23.86,23.86,0,0,1,383.92,169.64Z"/><rect class="c" x="164.12" y="194.74" width="183.76" height="19.72"/><rect class="c" x="164.12" y="230.67" width="183.76" height="19.72"/><rect class="c" x="164.12" y="266.59" width="183.76" height="19.72"/><rect class="c" x="164.12" y="302.52" width="91.88" height="19.72"/></svg>