<svg xmlns="http://www.w3.org/2000/svg" viewBox="0 0 512 512"><defs><style>.a{fill:#cccccb;}.b{fill:#fff;}</style></defs><title>default</title><circle class="a" cx="256" cy="256" r="256"/><path class="b" d="M356.57,243.51l-26,26a60.4,60.4,0,0,1-85.19,0s-5.61-5.71-6.68-7a27.17,27.17,0,0,0-37.17,1.05l-27.19,27.2a27.14,27.14,0,0,0,0,38.28l8.22,8.22a27.14,27.14,0,0,0,38.28,0L248,310.1c3.7-3.71,5.19-6.59,9-9.66,5.91-4.71,13.92-7,21.59,0,9.42,8.65-.55,21.53-10.24,31.22l-26,26a60.44,60.44,0,0,1-85.2,0l-3.27-3.27a60.44,60.44,0,0,1,0-85.2l26-26A60.42,60.42,0,0,1,262,240.28h0c.32.17,9.08,8.84,9.08,8.84a27.17,27.17,0,0,0,38.29,0l27.19-27.19a27.15,27.15,0,0,0,0-38.29l-8.22-8.22a27.15,27.15,0,0,0-38.29,0l-27.19,27.19c-3.45,3.45-7.36,7.39-10,9.66a14.78,14.78,0,0,1-19.49,0c-9.46-8.09-.73-21.8,8.7-31.22l26-26a60.44,60.44,0,0,1,85.2,0l3.27,3.27A60.44,60.44,0,0,1,356.57,243.51Z"/></svg>