<svg xmlns="http://www.w3.org/2000/svg" viewBox="0 0 1920 1200"><defs><style>.cls-1,.cls-3{fill:#fff;}.cls-1{opacity:0.3;}.cls-2{fill:none;stroke:#fff;stroke-miterlimit:10;stroke-width:4px;}.cls-4{fill:#6d6e71;}.cls-5{fill:#f1f2f2;}.cls-6{fill:#ccc;}.cls-7{fill:#e6e6e5;}.cls-8{fill:#4e4e4e;}</style></defs><title>dolphin</title><g id="chat"><path class="cls-1" d="M1410.79,195.52V652.35A35.9,35.9,0,0,1,1375,688.14H702.52c0,38.92-55,70.45-123,70.45,32.78,0,52.88-35.23,52.88-70.45H545a35.9,35.9,0,0,1-35.79-35.79V195.52A35.9,35.9,0,0,1,545,159.73h830A35.9,35.9,0,0,1,1410.79,195.52Z"/><path class="cls-2" d="M1410.79,195.52V652.35A35.9,35.9,0,0,1,1375,688.14H702.52c0,38.92-55,70.45-123,70.45,32.78,0,52.88-35.23,52.88-70.45H545a35.9,35.9,0,0,1-35.79-35.79V195.52A35.9,35.9,0,0,1,545,159.73h830A35.9,35.9,0,0,1,1410.79,195.52Z"/><path class="cls-3" d="M562.73,281.57a44.22,44.22,0,0,0,6.17,1.48,48.61,48.61,0,0,0,6.11,1.07,59.21,59.21,0,0,0,6.91.4q6.17,0,6.17-4.56a5.11,5.11,0,0,0-1.88-3.56,56.63,56.63,0,0,0-4.77-4q-2.89-2.22-6.17-4.9a44.48,44.48,0,0,1-6.18-6.17,32.14,32.14,0,0,1-4.76-7.85,25,25,0,0,1-1.88-10,25.8,25.8,0,0,1,2.28-11.14,22.37,22.37,0,0,1,6.31-8.05,28.37,28.37,0,0,1,9.46-4.9,39.16,39.16,0,0,1,11.61-1.68,62.37,62.37,0,0,1,6.44.33l5.77.6,5.77.81v25.1l-2.42-.27-2.42-.27c-.89-.09-1.84-.13-2.82-.13q-.81,0-2,.07a12.44,12.44,0,0,0-2.28.33,4.66,4.66,0,0,0-1.88.94,2.31,2.31,0,0,0-.81,1.88q0,1.07,1.81,2.68t4.43,3.76q2.62,2.15,5.77,5a40.12,40.12,0,0,1,5.77,6.44,37.64,37.64,0,0,1,4.43,8.19,27.41,27.41,0,0,1,1.81,10.2,32.15,32.15,0,0,1-1.88,11.07,23.54,23.54,0,0,1-5.84,9,27.93,27.93,0,0,1-10.13,6A43.38,43.38,0,0,1,587,311.64a88.66,88.66,0,0,1-9.46-.47q-4.36-.47-7.72-1.14a65,65,0,0,1-7.11-1.61ZM574,297.68q1.88.4,4,.67,1.88.27,4,.47t4.23.2a30.55,30.55,0,0,0,7.31-.87,18.37,18.37,0,0,0,6.38-2.89,14.78,14.78,0,0,0,4.5-5.17,16.26,16.26,0,0,0,1.68-7.72,15,15,0,0,0-1.95-7.38,34.19,34.19,0,0,0-5-6.71,84.12,84.12,0,0,0-6.44-6.17q-3.42-3-6.44-6a36.79,36.79,0,0,1-5-6,11.37,11.37,0,0,1-1.95-6.24,9.22,9.22,0,0,1,3.09-7.45q3.09-2.62,9.93-2.62,1.07,0,2.22.07t2.21.2a17.12,17.12,0,0,0,2.15.13V230.7a16.09,16.09,0,0,1-2-.13q-.94-.13-2.08-.2t-2.35-.07q-7.25,0-11.95,3.29t-4.7,10.27a13.58,13.58,0,0,0,1.95,7,35.34,35.34,0,0,0,5,6.44q3,3.15,6.44,6.11t6.44,6a33.07,33.07,0,0,1,5,6.24,12.81,12.81,0,0,1,1.95,6.71q0,6.44-4.36,9.8t-12,3.36a47.36,47.36,0,0,1-8.32-.67q-2-.27-3.89-.67Z"/><path class="cls-3" d="M623.53,264.66a45.72,45.72,0,0,1,3.69-18.25,47,47,0,0,1,25-25,47,47,0,0,1,36.51,0,47,47,0,0,1,25,25,47,47,0,0,1,0,36.51,47,47,0,0,1-25,25,47,47,0,0,1-36.51,0,47,47,0,0,1-25-25A45.7,45.7,0,0,1,623.53,264.66Zm12.62,0A33.43,33.43,0,0,0,638.83,278a34.62,34.62,0,0,0,18.32,18.32,34.55,34.55,0,0,0,26.71,0A34.62,34.62,0,0,0,702.18,278a34.58,34.58,0,0,0,0-26.71A34.63,34.63,0,0,0,683.86,233a34.57,34.57,0,0,0-26.71,0,34.63,34.63,0,0,0-18.32,18.32A33.44,33.44,0,0,0,636.14,264.66Zm34.36,30.87a29.85,29.85,0,0,1-12-2.42A31.42,31.42,0,0,1,642,276.68a31.07,31.07,0,0,1,0-24,31.42,31.42,0,0,1,16.44-16.44,31.07,31.07,0,0,1,24,0A31.42,31.42,0,0,1,699,252.65a31.09,31.09,0,0,1,0,24,31.42,31.42,0,0,1-16.44,16.44A29.87,29.87,0,0,1,670.5,295.53Zm-18.79-30.87a18.23,18.23,0,0,0,1.48,7.31,18.83,18.83,0,0,0,10,10,18.86,18.86,0,0,0,14.63,0,18.84,18.84,0,0,0,10-10,18.85,18.85,0,0,0,0-14.63,18.86,18.86,0,0,0-10-10,18.86,18.86,0,0,0-14.63,0,18.85,18.85,0,0,0-10,10A18.24,18.24,0,0,0,651.71,264.66Z"/><path class="cls-3" d="M751.71,219.83H781.5v66h24.7v23.49H751.71Zm47,78.79V295.4H768.62V230.57h-3.49v68Z"/><path class="cls-3" d="M808.88,264.66a45.69,45.69,0,0,1,3.69-18.25,47,47,0,0,1,25-25,47,47,0,0,1,36.51,0,47,47,0,0,1,25,25,47,47,0,0,1,0,36.51,47,47,0,0,1-25,25,47,47,0,0,1-36.51,0,47,47,0,0,1-25-25A45.68,45.68,0,0,1,808.88,264.66Zm12.62,0A33.45,33.45,0,0,0,824.18,278a34.63,34.63,0,0,0,18.32,18.32,34.55,34.55,0,0,0,26.71,0A34.6,34.6,0,0,0,887.53,278a34.55,34.55,0,0,0,0-26.71A34.61,34.61,0,0,0,869.21,233a34.57,34.57,0,0,0-26.71,0,34.64,34.64,0,0,0-18.32,18.32A33.46,33.46,0,0,0,821.5,264.66Zm34.36,30.87a29.86,29.86,0,0,1-12-2.42,31.42,31.42,0,0,1-16.44-16.44,31.09,31.09,0,0,1,0-24,31.42,31.42,0,0,1,16.44-16.44,31.08,31.08,0,0,1,24,0,31.4,31.4,0,0,1,16.44,16.44,31.05,31.05,0,0,1,0,24,31.4,31.4,0,0,1-16.44,16.44A29.87,29.87,0,0,1,855.86,295.53Zm-18.79-30.87a18.26,18.26,0,0,0,1.48,7.31,18.83,18.83,0,0,0,10,10,18.85,18.85,0,0,0,14.63,0,18.82,18.82,0,0,0,10-10,18.89,18.89,0,0,0,0-14.63,18.84,18.84,0,0,0-10-10,18.85,18.85,0,0,0-14.63,0,18.84,18.84,0,0,0-10,10A18.27,18.27,0,0,0,837.07,264.66Z"/><path class="cls-3" d="M910.22,219.83h23.49l24.7,34.49V219.83h28v89.53H962.83L938.27,275v34.36H910.22Zm16,78.79v-62l44.29,62H974v-68h-3.49v62l-44.29-62H922.7v68Z"/><path class="cls-3" d="M1052.89,250.3a16.34,16.34,0,0,0-6-3.29,23.62,23.62,0,0,0-7.11-1.14,17.55,17.55,0,0,0-7.11,1.41,16.89,16.89,0,0,0-5.57,3.89,18,18,0,0,0-3.69,6,20.78,20.78,0,0,0-1.34,7.52,19.08,19.08,0,0,0,1.48,7.52,18,18,0,0,0,4,6,18.61,18.61,0,0,0,6,3.89,19,19,0,0,0,7.32,1.41,17.83,17.83,0,0,0,8.32-1.95,19.86,19.86,0,0,0,6.44-5.3h-8.05V257.41H1082v29.8a49.4,49.4,0,0,1-7.38,10,47,47,0,0,1-9.6,7.72,46.18,46.18,0,0,1-11.48,5,46.75,46.75,0,0,1-59.73-45.23,48,48,0,0,1,3.49-18.25,46.89,46.89,0,0,1,9.59-15,44.92,44.92,0,0,1,14.5-10.07,44.34,44.34,0,0,1,18.05-3.69,50.72,50.72,0,0,1,13,1.48,50,50,0,0,1,9.26,3.36,33.94,33.94,0,0,1,7.38,4.7Zm1.34-17.31a22.26,22.26,0,0,0-3.89-1.34,38.52,38.52,0,0,0-4.43-.94,36.37,36.37,0,0,0-5.64-.4,34.47,34.47,0,0,0-13.29,2.55,33.16,33.16,0,0,0-10.74,7,32.39,32.39,0,0,0-7.18,10.8,36.1,36.1,0,0,0-2.62,14,35.26,35.26,0,0,0,2.69,14,32.15,32.15,0,0,0,7.38,10.8,34.51,34.51,0,0,0,10.94,7,35,35,0,0,0,13.36,2.55,32.81,32.81,0,0,0,16.78-4.36,35.72,35.72,0,0,0,12.21-11.61V265.47h-14.23v3.22h10.74v13.42a30.36,30.36,0,0,1-25.5,13.42,32.22,32.22,0,0,1-12-2.22,29.36,29.36,0,0,1-16.44-16.11,31.86,31.86,0,0,1-2.42-12.55,32.63,32.63,0,0,1,2.35-12.55,29.62,29.62,0,0,1,6.44-9.8,28.41,28.41,0,0,1,9.6-6.31,31.69,31.69,0,0,1,11.95-2.22,24.81,24.81,0,0,1,4.56.4c1.43.27,2.69.54,3.76.81q1.88.54,3.49,1.07Z"/><path class="cls-3" d="M1142.82,219.83h21.47l34,89.53h-28.19l-3-8.05H1140l-3,8.05h-28.19Zm-14,78.79,2.55-6.71h44.29l2.55,6.71H1182l-25.9-68H1151l-25.91,68Zm24.7-64.83,20.94,54.9h-41.88Zm6,47.78-6-15.7-6,15.7Z"/><path class="cls-3" d="M1200.26,219.83h23.49l24.7,34.49V219.83h28v89.53h-23.62L1228.32,275v34.36h-28.05Zm16,78.79v-62l44.29,62H1264v-68h-3.49v62l-44.29-62h-3.49v68Z"/><path class="cls-3" d="M1285.89,309.36V219.83h24.83a81.9,81.9,0,0,1,22.48,2.82,45,45,0,0,1,16.64,8.46,36.45,36.45,0,0,1,10.33,14,54.66,54.66,0,0,1,0,38.79,36.44,36.44,0,0,1-10.33,14,45.75,45.75,0,0,1-16.64,8.52,80.15,80.15,0,0,1-22.48,2.89Zm13.42-10.74h11.41q19.59,0,29.59-8.92t10-25.17q0-16.24-10-25.1t-29.59-8.86h-11.41Zm3.49-3.22V233.79h7.92q17,0,26.51,7.72t9.46,23q0,15.3-9.46,23.09t-26.51,7.78Zm11.68-11.54q10.07,0,15.57-4.77t5.5-14.56q0-9.8-5.5-14.5t-15.57-4.7Z"/><path class="cls-3" d="M617.42,404.39H600.91V380.9h62.55v23.49H646.95v66H617.42Zm16.51,55.3V394.86h19.19v-3.22H611.24v3.22h19.19v64.83Z"/><path class="cls-3" d="M668.15,380.9h28.59v30.47h16V380.9h28.72v89.53H712.71V437.27h-16v33.15H668.15Zm16.91,78.79v-34h39.46v34H728v-68h-3.49v30.87H685.06V391.63h-3.49v68Z"/><path class="cls-3" d="M777.41,380.9h21.48l34,89.53H804.65l-3-8.05H774.59l-3,8.05H743.45Zm-14,78.79L766,453h44.29l2.55,6.71h3.76l-25.91-68h-5.1l-25.9,68Zm24.7-64.83,20.94,54.9H767.21Zm6,47.78-6-15.7-6,15.7Z"/><path class="cls-3" d="M834.85,380.9h23.49L883,415.39V380.9h28v89.53H887.47L862.9,436.06v34.36H834.85Zm16,78.79v-62l44.29,62h3.49v-68h-3.49v62l-44.29-62h-3.49v68Z"/><path class="cls-3" d="M920.48,380.9h29v20.67l16.91-20.67h35l-31.54,40.94L1003,470.42h-34.5l-19.06-27.65v27.65h-29Zm16.91,78.79V441.57l14-17.31,24.43,35.43h4.16l-26.17-38.25,24-29.8h-4.3l-36.1,44.56V391.63H933.9v68Z"/><path class="cls-3" d="M1003.29,442.64a44.34,44.34,0,0,0,6.18,1.48,48.54,48.54,0,0,0,6.11,1.07,59.18,59.18,0,0,0,6.91.4q6.17,0,6.17-4.56a5.11,5.11,0,0,0-1.88-3.56,56.54,56.54,0,0,0-4.76-4q-2.89-2.22-6.18-4.9a44.48,44.48,0,0,1-6.18-6.17,32.19,32.19,0,0,1-4.77-7.85,25.06,25.06,0,0,1-1.88-10,25.78,25.78,0,0,1,2.28-11.14,22.4,22.4,0,0,1,6.31-8.05,28.39,28.39,0,0,1,9.46-4.9,39.16,39.16,0,0,1,11.61-1.68,62.44,62.44,0,0,1,6.44.33l5.77.6,5.77.81v25.1l-2.42-.27-2.41-.27c-.9-.09-1.84-.13-2.82-.13-.54,0-1.21,0-2,.07a12.46,12.46,0,0,0-2.28.33,4.69,4.69,0,0,0-1.88.94,2.31,2.31,0,0,0-.8,1.88q0,1.07,1.81,2.68t4.43,3.76q2.62,2.15,5.77,5a40.18,40.18,0,0,1,5.77,6.44,37.58,37.58,0,0,1,4.43,8.19,27.41,27.41,0,0,1,1.81,10.2,32.15,32.15,0,0,1-1.88,11.07,23.56,23.56,0,0,1-5.84,9,28,28,0,0,1-10.13,6,43.4,43.4,0,0,1-14.63,2.22,88.66,88.66,0,0,1-9.46-.47q-4.36-.47-7.72-1.14a65.1,65.1,0,0,1-7.12-1.61Zm11.28,16.11q1.88.4,4,.67,1.88.27,4,.47t4.23.2a30.58,30.58,0,0,0,7.32-.87,18.42,18.42,0,0,0,6.38-2.89,14.76,14.76,0,0,0,4.49-5.17,16.26,16.26,0,0,0,1.68-7.72,15,15,0,0,0-1.95-7.38,34.31,34.31,0,0,0-5-6.71,83.85,83.85,0,0,0-6.44-6.17q-3.42-3-6.44-6a36.86,36.86,0,0,1-5-6,11.38,11.38,0,0,1-1.95-6.24,9.22,9.22,0,0,1,3.09-7.45q3.08-2.62,9.93-2.62,1.07,0,2.21.07c.76,0,1.5.11,2.22.2a17.09,17.09,0,0,0,2.15.13v-3.49a16.09,16.09,0,0,1-2-.13q-.94-.13-2.08-.2c-.76,0-1.54-.07-2.35-.07q-7.25,0-11.95,3.29t-4.7,10.27a13.61,13.61,0,0,0,1.95,7,35.4,35.4,0,0,0,5,6.44q3,3.15,6.44,6.11t6.44,6a33.13,33.13,0,0,1,5,6.24,12.81,12.81,0,0,1,1.95,6.71q0,6.44-4.36,9.8t-12,3.36a47.39,47.39,0,0,1-8.32-.67q-2-.27-3.89-.67Z"/><path class="cls-3" d="M1093,380.9h52.75v23.49h-24.16v9.93h23.76V436.6h-23.76v33.82H1093Zm16.91,78.79V427.07h25.5v-3.22h-25.5v-29h26.84v-3.22h-30.33v68Z"/><path class="cls-3" d="M1151.07,425.73a45.74,45.74,0,0,1,3.69-18.25,47,47,0,0,1,25-25,47,47,0,0,1,36.51,0,47,47,0,0,1,25,25,47,47,0,0,1,0,36.51,47,47,0,0,1-25,25,47,47,0,0,1-36.51,0,47,47,0,0,1-25-25A45.73,45.73,0,0,1,1151.07,425.73Zm12.62,0a33.41,33.41,0,0,0,2.69,13.36,34.6,34.6,0,0,0,18.32,18.32,34.55,34.55,0,0,0,26.71,0,34.61,34.61,0,0,0,18.32-18.32,34.55,34.55,0,0,0,0-26.71,34.62,34.62,0,0,0-18.32-18.32,34.57,34.57,0,0,0-26.71,0,34.61,34.61,0,0,0-18.32,18.32A33.41,33.41,0,0,0,1163.69,425.73ZM1198,456.6a29.87,29.87,0,0,1-12-2.42,31.42,31.42,0,0,1-16.44-16.44,31.05,31.05,0,0,1,0-24A31.43,31.43,0,0,1,1186,397.27a31.08,31.08,0,0,1,24,0,31.42,31.42,0,0,1,16.44,16.44,31.09,31.09,0,0,1,0,24,31.42,31.42,0,0,1-16.44,16.44A29.86,29.86,0,0,1,1198,456.6Zm-18.79-30.87a18.26,18.26,0,0,0,1.48,7.31,18.86,18.86,0,0,0,10,10,18.86,18.86,0,0,0,14.63,0,18.83,18.83,0,0,0,10-10,18.85,18.85,0,0,0,0-14.63,18.84,18.84,0,0,0-10-10,18.86,18.86,0,0,0-14.63,0,18.87,18.87,0,0,0-10,10A18.27,18.27,0,0,0,1179.25,425.73Z"/><path class="cls-3" d="M1252.41,380.9h30.87a53.22,53.22,0,0,1,15.91,2.28,37,37,0,0,1,12.68,6.71,30.75,30.75,0,0,1,8.39,10.94,35.21,35.21,0,0,1,3,15,30.75,30.75,0,0,1-1.88,11.41,35,35,0,0,1-4.16,7.79,29,29,0,0,1-6,5.91L1328,470.42h-33.56L1281,447.74v22.68h-28.59Zm27.92,58.39a48.1,48.1,0,0,0,10.2-1.07l12.75,21.47h4.16L1294,437.14a25.2,25.2,0,0,0,11.54-7.85q4.29-5.3,4.3-13.76a22.29,22.29,0,0,0-2.28-10.34,21.88,21.88,0,0,0-6.24-7.45,28,28,0,0,0-9.33-4.56,42.16,42.16,0,0,0-11.68-1.54h-14.49v68h3.49v-20.4Zm-11-3.22V394.86h11q12.21,0,19.13,5.37t6.91,15.3q0,9.93-6.91,15.23t-19.13,5.3ZM1281,424.92h1.48a15.7,15.7,0,0,0,8.66-2.28q3.55-2.28,3.56-7.65t-3.56-7.65a15.71,15.71,0,0,0-8.66-2.28H1281Z"/><path class="cls-3" d="M622.38,542h21.48l34,89.53H649.63l-3-8.05H619.57l-3,8.05H588.43Zm-14,78.79L611,614h44.29l2.55,6.71h3.76l-25.9-68h-5.1l-25.9,68Zm24.7-64.83,20.94,54.9H612.18Zm6,47.78-6-15.7-6,15.7Z"/><path class="cls-3" d="M679.83,542h29.8v66h24.7v23.49H679.83Zm47,78.79v-3.22H696.74V552.7h-3.49v68Z"/><path class="cls-3" d="M739,542h29.8v66h24.7v23.49H739Zm47,78.79v-3.22H755.93V552.7h-3.49v68Z"/><path class="cls-3" d="M836.86,565.45H820.35V542H882.9v23.49H866.39v66H836.86Zm16.51,55.3V555.92h19.19V552.7H830.69v3.22h19.2v64.83Z"/><path class="cls-3" d="M887.6,542h28.59v30.47h16V542h28.72v89.53H932.16V598.33h-16v33.15H887.6Zm16.91,78.79v-34H944v34h3.49v-68H944v30.87H904.51V552.7H901v68Z"/><path class="cls-3" d="M970.28,542H1023v23.49H998.87v9.93h23.76v22.28H998.87V608H1024v23.49H970.28ZM1014,620.75v-3.22H987.19V588.13h25.5v-3.22h-25.5v-29H1014V552.7H983.7v68Z"/><path class="cls-3" d="M1058.86,542h52.75v23.49h-24.16v9.93h23.76v22.28h-23.76v33.82h-28.59Zm16.91,78.79V588.13h25.5v-3.22h-25.5v-29h26.84V552.7h-30.33v68Z"/><path class="cls-3" d="M1119,542h30.33v89.53H1119Zm16.91,78.79v-68h-3.49v68Z"/><path class="cls-3" d="M1156.3,603.7a44.34,44.34,0,0,0,6.18,1.48,48.54,48.54,0,0,0,6.11,1.07,59.18,59.18,0,0,0,6.91.4q6.17,0,6.17-4.56a5.11,5.11,0,0,0-1.88-3.56,56.54,56.54,0,0,0-4.76-4q-2.89-2.22-6.18-4.9a44.48,44.48,0,0,1-6.18-6.17,32.19,32.19,0,0,1-4.77-7.85,25.06,25.06,0,0,1-1.88-10,25.78,25.78,0,0,1,2.28-11.14,22.4,22.4,0,0,1,6.31-8.05,28.39,28.39,0,0,1,9.46-4.9,39.16,39.16,0,0,1,11.61-1.68,62.44,62.44,0,0,1,6.44.33l5.77.6,5.77.81v25.1l-2.42-.27-2.41-.27c-.9-.09-1.84-.13-2.82-.13-.54,0-1.21,0-2,.07a12.46,12.46,0,0,0-2.28.33,4.69,4.69,0,0,0-1.88.94,2.31,2.31,0,0,0-.8,1.88q0,1.07,1.81,2.68t4.43,3.76q2.62,2.15,5.77,5a40.18,40.18,0,0,1,5.77,6.44,37.58,37.58,0,0,1,4.43,8.19,27.41,27.41,0,0,1,1.81,10.2,32.15,32.15,0,0,1-1.88,11.07,23.57,23.57,0,0,1-5.84,9,28,28,0,0,1-10.13,6,43.4,43.4,0,0,1-14.63,2.21,89.06,89.06,0,0,1-9.46-.47q-4.36-.47-7.72-1.14a64.43,64.43,0,0,1-7.12-1.61Zm11.28,16.11q1.88.4,4,.67,1.88.27,4,.47t4.23.2a30.58,30.58,0,0,0,7.32-.87,18.42,18.42,0,0,0,6.38-2.89,14.76,14.76,0,0,0,4.49-5.17,16.26,16.26,0,0,0,1.68-7.72,15,15,0,0,0-1.95-7.38,34.31,34.31,0,0,0-5-6.71,83.85,83.85,0,0,0-6.44-6.17q-3.42-3-6.44-6a36.86,36.86,0,0,1-5-6,11.38,11.38,0,0,1-1.95-6.24,9.22,9.22,0,0,1,3.09-7.45q3.08-2.62,9.93-2.62,1.07,0,2.21.07c.76,0,1.5.11,2.22.2a17.09,17.09,0,0,0,2.15.13v-3.49a16.09,16.09,0,0,1-2-.13q-.94-.13-2.08-.2c-.76,0-1.54-.07-2.35-.07q-7.25,0-11.95,3.29t-4.7,10.27a13.61,13.61,0,0,0,1.95,7,35.4,35.4,0,0,0,5,6.44q3,3.15,6.44,6.11t6.44,6a33.13,33.13,0,0,1,5,6.24,12.81,12.81,0,0,1,1.95,6.71q0,6.44-4.36,9.8t-12,3.36a47.39,47.39,0,0,1-8.32-.67q-2-.27-3.89-.67Z"/><path class="cls-3" d="M1219.12,542h28.59v30.47h16V542h28.72v89.53h-28.72V598.33h-16v33.15h-28.59ZM1236,620.75v-34h39.46v34H1279v-68h-3.49v30.87H1236V552.7h-3.49v68Z"/><path class="cls-3" d="M1301.12,542h30.6L1327.17,605h-21.48Zm.94,67.11h28.72v22.42h-28.72Zm20.67,12.75v-3.09h-12.62v3.09Zm-4.7-25.23V551.89h-3.22v44.69Z"/></g><g id="Dolphin"><path class="cls-4" d="M562.85,798.55s-11,8.06-46.35,8.34c-8.35.06-27.41-2.4-53.29-5.81-31.83-4.18-74-9.81-119.12-13.85,21-3.67,69.11-11.07,88.38-13.83-1.63.36-28.71,7-30.43,10.84C562.85,787.22,562.85,798.35,562.85,798.55Z"/><g id="bottom_teeth" data-name="bottom teeth"><path class="cls-5" d="M464,802.56l-1.18-.09s-2.94-.1-2.9-1.29l.8-1.52c.63-1.11,1.1-2,2.71-1.91l.55,0c1.61.13,2,1.18,2.66,2.41l.73,1.6C467.29,803,464,802.56,464,802.56Z"/><path class="cls-5" d="M556.53,802.31l-1.11.34s-2.7,1-3.31-.11l-.1-1.65c0-1.21-.11-2.22,1.4-2.68l.52-.16c1.52-.46,2.46.33,3.7,1.19l1.53,1.17C559.77,801.49,556.53,802.31,556.53,802.31Z"/><path class="cls-5" d="M547.39,805.08l-1.14.25s-2.79.74-3.26-.39l.1-1.66c.12-1.22.16-2.23,1.72-2.57l.53-.11c1.56-.33,2.4.53,3.51,1.5l1.37,1.3C550.7,804.53,547.39,805.08,547.39,805.08Z"/><path class="cls-5" d="M537.35,806.65l-1.17.14s-2.88.47-3.15-.69l.38-1.64c.32-1.2.54-2.21,2.14-2.39l.54-.06c1.6-.18,2.27.76,3.21,1.83l1.13,1.42C540.7,806.42,537.35,806.65,537.35,806.65Z"/><path class="cls-5" d="M526.83,807.36l-1.17.08s-2.91.32-3.1-.86l.5-1.62c.41-1.18.69-2.18,2.3-2.28l.55,0c1.61-.1,2.22.88,3.07,2l1,1.48C530.19,807.3,526.83,807.36,526.83,807.36Z"/><path class="cls-5" d="M516.41,808h-1.18s-2.93.09-3-1.1l.64-1.58c.51-1.15.89-2.12,2.5-2.09h.55c1.61,0,2.13,1.05,2.88,2.23l.89,1.56C519.77,808.16,516.41,808,516.41,808Z"/><path class="cls-5" d="M505.91,807.44l-1.18-.06s-2.94,0-2.94-1.21l.75-1.55c.59-1.12,1-2.08,2.64-2l.55,0c1.61.09,2.06,1.12,2.74,2.33l.79,1.58C509.25,807.77,505.91,807.44,505.91,807.44Z"/><path class="cls-5" d="M494.89,806.19l-1.18-.09s-2.94-.1-2.9-1.29l.8-1.52c.63-1.11,1.1-2,2.71-1.91l.55,0c1.61.13,2,1.18,2.66,2.41l.73,1.6C498.22,806.62,494.89,806.19,494.89,806.19Z"/><path class="cls-5" d="M484.7,805l-1.18-.09s-2.94-.1-2.9-1.29l.8-1.52c.63-1.11,1.1-2,2.71-1.91l.55,0c1.61.13,2,1.18,2.66,2.41l.73,1.6C488,805.44,484.7,805,484.7,805Z"/><path class="cls-5" d="M474.27,803.73l-1.18-.09s-2.94-.1-2.9-1.29l.8-1.52c.63-1.11,1.1-2,2.71-1.91l.55,0c1.61.13,2,1.18,2.66,2.41l.73,1.6C477.61,804.16,474.27,803.73,474.27,803.73Z"/><path class="cls-5" d="M453.83,801.28l-1.18-.09s-2.94-.1-2.9-1.29l.8-1.52c.63-1.11,1.1-2,2.71-1.91l.55,0c1.61.13,2,1.18,2.66,2.41l.73,1.6C457.16,801.71,453.83,801.28,453.83,801.28Z"/><path class="cls-5" d="M443,800.11l-1.18-.09s-2.94-.1-2.9-1.29l.8-1.52c.63-1.11,1.1-2,2.71-1.91l.55,0c1.61.13,2,1.18,2.66,2.41l.73,1.6C446.32,800.54,443,800.11,443,800.11Z"/><path class="cls-5" d="M432.43,798.83l-1.18-.09s-2.94-.1-2.9-1.29l.8-1.52c.63-1.11,1.1-2,2.71-1.91l.55,0c1.61.13,2,1.18,2.66,2.41l.73,1.6C435.76,799.26,432.43,798.83,432.43,798.83Z"/><path class="cls-5" d="M421,797.66l-1.18-.09s-2.94-.1-2.9-1.29l.8-1.52c.63-1.11,1.1-2,2.71-1.91l.55,0c1.61.13,2,1.18,2.66,2.41l.73,1.6C424.38,798.09,421,797.66,421,797.66Z"/><path class="cls-5" d="M560.58,799.29l.58,0s1.42.23,1.76-.85L563,797c0-1.07.09-2-.71-2l-.27,0c-.8-.05-1.31.85-2,1.89l-.82,1.37C558.87,799.31,560.58,799.29,560.58,799.29Z"/><path class="cls-5" d="M553.88,796.15l1.15.17s2.82.55,3.25-.61l-.15-1.65c-.15-1.21-.23-2.22-1.8-2.44l-.53-.08c-1.57-.22-2.38.7-3.47,1.74L551,794.68C550.56,795.83,553.88,796.15,553.88,796.15Z"/><path class="cls-5" d="M544.37,794.27l1.15.17s2.82.55,3.25-.61l-.15-1.65c-.15-1.21-.23-2.22-1.8-2.44l-.53-.08c-1.57-.22-2.38.7-3.47,1.74l-1.33,1.39C541.05,794,544.37,794.27,544.37,794.27Z"/><path class="cls-5" d="M534.52,792.52l1.15.17s2.82.55,3.25-.61l-.15-1.65c-.15-1.21-.23-2.22-1.8-2.44l-.53-.08c-1.57-.22-2.38.7-3.47,1.74l-1.33,1.39C531.2,792.21,534.52,792.52,534.52,792.52Z"/><path class="cls-5" d="M524,791.24l1.15.16s2.82.52,3.25-.64l-.16-1.65c-.16-1.2-.25-2.21-1.82-2.42l-.54-.07c-1.57-.21-2.38.72-3.45,1.78l-1.32,1.4C520.72,791,524,791.24,524,791.24Z"/><path class="cls-5" d="M514,790.38l1.15.17s2.82.55,3.25-.61l-.15-1.65c-.15-1.21-.23-2.22-1.8-2.44l-.53-.08c-1.57-.22-2.38.7-3.47,1.74l-1.33,1.39C510.69,790.06,514,790.38,514,790.38Z"/><path class="cls-5" d="M503.87,789.66l1.15.17s2.82.55,3.25-.61l-.15-1.65c-.15-1.21-.23-2.22-1.8-2.44l-.53-.08c-1.57-.22-2.38.7-3.47,1.74L501,788.18C500.55,789.34,503.87,789.66,503.87,789.66Z"/><path class="cls-5" d="M493.14,788.91l1.15.14s2.83.46,3.23-.71l-.2-1.64c-.19-1.2-.29-2.21-1.87-2.38l-.54-.06c-1.58-.17-2.36.77-3.42,1.85l-1.29,1.43C489.81,788.69,493.14,788.91,493.14,788.91Z"/><path class="cls-5" d="M482.1,788.25l1.15.17s2.82.53,3.25-.63l-.16-1.65c-.16-1.2-.24-2.22-1.81-2.43l-.53-.07c-1.57-.21-2.38.71-3.46,1.76l-1.33,1.4C478.78,788,482.1,788.25,482.1,788.25Z"/><path class="cls-5" d="M470.26,787.6l1.15.17s2.82.53,3.25-.63l-.16-1.65c-.16-1.2-.24-2.22-1.81-2.43l-.53-.07c-1.57-.21-2.38.71-3.46,1.76l-1.33,1.4C466.93,787.3,470.26,787.6,470.26,787.6Z"/><path class="cls-5" d="M459,787.13l1.15.17s2.82.53,3.25-.63l-.16-1.65c-.16-1.2-.24-2.22-1.81-2.43l-.53-.07c-1.57-.21-2.38.71-3.46,1.76l-1.33,1.4C455.65,786.84,459,787.13,459,787.13Z"/><path class="cls-5" d="M447.94,786.93l1.15.17s2.82.53,3.25-.63l-.16-1.65c-.16-1.2-.24-2.22-1.81-2.43l-.53-.07c-1.57-.21-2.38.71-3.46,1.76l-1.33,1.4C444.61,786.64,447.94,786.93,447.94,786.93Z"/><path class="cls-5" d="M438.42,786.54l1.15.17s2.82.53,3.25-.63l-.16-1.65c-.16-1.2-.24-2.22-1.81-2.43l-.53-.07c-1.57-.21-2.38.71-3.46,1.76l-1.33,1.4C435.1,786.24,438.42,786.54,438.42,786.54Z"/><path class="cls-5" d="M427.62,786.31l1.15.17s2.82.53,3.25-.63l-.16-1.65c-.16-1.2-.24-2.22-1.81-2.43l-.53-.07c-1.57-.21-2.38.71-3.46,1.76l-1.33,1.4C424.29,786,427.62,786.31,427.62,786.31Z"/></g><g id="top_teeth" data-name="top teeth"><path class="cls-5" d="M554.06,738.89l1-.53s2.5-1.41,3.28-.45l.38,1.61c.24,1.19.49,2.17-.93,2.88l-.48.24c-1.42.71-2.48.09-3.85-.55l-1.71-.89C551,740.24,554.06,738.89,554.06,738.89Z"/><path class="cls-5" d="M545.86,743.76l1.07-.44s2.6-1.21,3.31-.2l.26,1.63c.14,1.21.32,2.2-1.15,2.8l-.5.2c-1.47.6-2.48-.1-3.79-.85l-1.63-1C542.71,744.87,545.86,743.76,545.86,743.76Z"/><path class="cls-5" d="M536.86,748.06l1.1-.38s2.67-1,3.31,0l.15,1.65c.07,1.21.18,2.22-1.32,2.73l-.51.17c-1.5.51-2.47-.25-3.73-1.08L534.29,750C533.65,749,536.86,748.06,536.86,748.06Z"/><path class="cls-5" d="M526.64,751.8l1.1-.37s2.68-1,3.31,0l.14,1.65c.06,1.21.16,2.22-1.35,2.71l-.51.17c-1.51.49-2.47-.28-3.72-1.12l-1.55-1.14C523.43,752.68,526.64,751.8,526.64,751.8Z"/><path class="cls-5" d="M517,754.8l1.13-.28s2.76-.8,3.3.31v1.65c0,1.21,0,2.23-1.56,2.59l-.53.12c-1.54.37-2.44-.48-3.62-1.42l-1.46-1.26C513.75,755.42,517,754.8,517,754.8Z"/><path class="cls-5" d="M507.13,756.91l1.12-.31s2.73-.89,3.3.21l.05,1.65c0,1.22,0,2.23-1.48,2.64l-.52.14c-1.53.41-2.45-.4-3.66-1.3l-1.49-1.22C503.87,757.63,507.13,756.91,507.13,756.91Z"/><path class="cls-5" d="M497.39,759.07l1.13-.25s2.77-.74,3.29.38l0,1.65c-.07,1.21-.07,2.23-1.62,2.56l-.53.11c-1.55.33-2.43-.53-3.58-1.49l-1.43-1.29C494.1,759.62,497.39,759.07,497.39,759.07Z"/><path class="cls-5" d="M487.38,761.06l1.14-.22s2.79-.67,3.28.46l-.07,1.65c-.1,1.21-.12,2.22-1.68,2.52l-.53.1c-1.56.29-2.41-.59-3.55-1.58l-1.39-1.33C484.08,761.53,487.38,761.06,487.38,761.06Z"/><path class="cls-5" d="M477.27,763.12l1.14-.22s2.79-.67,3.28.47l-.07,1.65c-.1,1.21-.13,2.22-1.69,2.52l-.53.1c-1.56.29-2.41-.59-3.55-1.58l-1.39-1.33C474,763.58,477.27,763.12,477.27,763.12Z"/><path class="cls-5" d="M466.62,765.24l1.13-.25s2.77-.75,3.29.38l0,1.65c-.07,1.21-.07,2.23-1.62,2.56l-.53.11c-1.55.34-2.43-.53-3.59-1.49l-1.43-1.29C463.34,765.79,466.62,765.24,466.62,765.24Z"/><path class="cls-5" d="M455.85,767.72l1.13-.24s2.78-.72,3.28.41l0,1.65c-.08,1.21-.09,2.23-1.64,2.54l-.53.11c-1.55.32-2.42-.55-3.57-1.53l-1.42-1.31C452.56,768.24,455.85,767.72,455.85,767.72Z"/><path class="cls-5" d="M445.66,769.52l1.13-.24s2.78-.71,3.28.42l0,1.65c-.08,1.21-.09,2.23-1.65,2.54l-.53.11c-1.55.32-2.42-.55-3.57-1.53l-1.41-1.31C442.37,770,445.66,769.52,445.66,769.52Z"/><path class="cls-5" d="M435.37,771.26l1.14-.19s2.81-.6,3.27.55l-.12,1.65c-.13,1.21-.18,2.22-1.75,2.47l-.53.09c-1.57.25-2.4-.65-3.51-1.67l-1.36-1.36C432.06,771.64,435.37,771.26,435.37,771.26Z"/><path class="cls-5" d="M424.75,773l1.14-.19s2.81-.6,3.27.55L429,775c-.13,1.21-.18,2.22-1.75,2.47l-.53.09c-1.57.25-2.4-.65-3.51-1.67l-1.36-1.36C421.44,773.4,424.75,773,424.75,773Z"/><path class="cls-5" d="M560.17,733.34l.9-.73s2.14-1.91,3.11-1.14a9.93,9.93,0,0,1,.54,1.45c.21,1.36.56,1.81-.32,3a4.39,4.39,0,0,1-.58.68c-1.18,1.06-2,.37-3.51,0l-1.86-.51C557.48,735.31,560.17,733.34,560.17,733.34Z"/></g><path class="cls-6" d="M564.43,731.39s-9.22,14.26-43.31,23.56c-13.78,3.76-58.64,14.47-115.85,22.64a1.45,1.45,0,0,0-.36,0c-19.27,2.77-39.82,5.94-60.82,9.6,45.16,4,87.27,9.66,119.1,13.84-27.17,6.83-58.07,12.62-90,18.46q-13.38,2.46-26.9,5c-14.59,2.68-29.23,5.46-43.73,8.41-.86.18-1.73.33-2.57.54-1.46.3-2.92.57-4.38.89-2.71.57-5.46,1.13-8.14,1.73-37.76,8.11-73.67,17.69-103.2,30.54-2.15,1-4.27,1.91-6.35,2.89-1.1.51-2.21,1-3.31,1.58s-2.33,1.16-3.49,1.73-2.21,1.13-3.31,1.7a0,0,0,0,0,0,0c-1.46.78-2.89,1.55-4.35,2.36a508.12,508.12,0,0,0-60.07,39.28c-29.77,22.25-55.51,28.19-72.21,51.72-3.88,5.22-7.25.45-10.68,5.76-4.15-1.61-7.34,12.94-11.39,11.13-6.77-3-13.09,6.23-19.6,2.65A264.29,264.29,0,0,1-141.75,806.49c-.24-1.16-.45-2.33-.66-3.49-.84-4.71-1.55-9.46-2.12-14.2A264,264,0,0,1-129,662.46c.33-.89.69-1.79,1-2.65,173.62-92.31,364.42-92.31,468.19-43.61,39.37,18.49,66.22,44,74.89,74.06,0,0,17.15-.45,39.85.84C497.59,693.51,570.79,710.09,564.43,731.39Z"/><path class="cls-7" d="M562.85,798.56a3.79,3.79,0,0,1-.63,1.94c-1.25,2.24-1.73,3-5.94,7.43-13.27,14-40.74,20.13-76.27,22-34.87,1.91-77.73-1.07-122.5-4.62-3.73-.3-15-.15-18.22.48-12.32,2.3-24.58,4.62-36.69,7.07-.86.18-1.73.33-2.57.54-1.46.3-2.92.57-4.38.89-2.71.57-5.46,1.13-8.14,1.73-37.64,7.93-73.19,17.3-103.2,30.54-2.15,1-4.27,1.91-6.35,2.89-1.1.51-2.21,1-3.31,1.58s-2.33,1.13-3.49,1.73-2.21,1.13-3.31,1.7a0,0,0,0,0,0,0c-1.46.78-2.89,1.55-4.35,2.36a508.12,508.12,0,0,0-60.07,39.28C73.63,938.42,46,962.25,23.2,981A273.88,273.88,0,0,1-.13,997.17c-24.49,14.47-72.24,34-72.24,59.13-35.55,0-55.66-7.32-55.66-26.95,0-18.85,25.47-38.83,55.09-52.11a.83.83,0,0,0,.57-.27A200.39,200.39,0,0,1-42.6,966.45,201.92,201.92,0,0,0-9.37,950.08c26-15.6,51.81-37,86-60.82a761.86,761.86,0,0,1,69.59-43.49c18.76-10.35,41-19.36,65.2-27.23,41.22-13.42,88-23.53,132.7-31.32,45.16,4,87.27,9.66,119.1,13.84,25.89,3.43,44.95,5.88,53.3,5.82C551.85,806.61,562.85,798.56,562.85,798.56Z"/><path id="fin" class="cls-6" d="M86.6,1045.22C4,1140.4,38,1011-15.88,924,11.61,885.3,51.54,844.55,100.5,808,100.5,808,179.54,938.05,86.6,1045.22Z"/><path class="cls-8" d="M354.79,711.59a17.51,17.51,0,0,1,3.5,24.68A17.91,17.91,0,0,1,333.4,740a17.51,17.51,0,0,1-3.5-24.68A17.91,17.91,0,0,1,354.79,711.59Z"/></g></svg>